<?xml version="1.0" encoding="UTF-8"?>
<svg width="26px" height="18px" viewBox="0 0 26 18" version="1.1" xmlns="http://www.w3.org/2000/svg" xmlns:xlink="http://www.w3.org/1999/xlink">
    <title>Icons / Envelope</title>
    <g id="Responsive" stroke="none" stroke-width="1" fill="none" fill-rule="evenodd">
        <g id="iPhone-8-Copy" transform="translate(-325.000000, -871.000000)" fill-rule="nonzero">
            <g id="Group-8-Copy" transform="translate(16.000000, 611.000000)">
                <g id="Group-Copy" transform="translate(0.000000, 253.000000)">
                    <g id="Icons-/-Envelope" transform="translate(310.000000, 8.000000)">
                        <g id="Group-6">
                            <path d="M0.494328248,0.000600794452 C0.213225314,0.0271500865 -0.00120719889,0.264266857 5.11485958e-06,0.547211382 L5.11485958e-06,15.3056972 C5.11485958e-06,15.6075694 0.244230959,15.8523078 0.54546459,15.8523078 L23.4545459,15.8523078 C23.7557795,15.8523078 24.0000051,15.6075694 24.0000051,15.3056972 L24.0000051,0.547211382 C24.0000051,0.245339187 23.7557795,0.000630962055 23.4545459,0.000600794452 L0.54546459,0.000600794452 C0.528428514,-0.000200264817 0.511364323,-0.000200264817 0.494328248,0.000600794452 Z M2.02841851,1.09382197 L21.971592,1.09382197 L12.0000052,9.13924655 L2.02841851,1.09382197 Z M1.09091891,1.74292204 L11.6590963,10.2666309 C11.8583758,10.4264942 12.1416347,10.4264942 12.3409142,10.2666309 L22.9090916,1.74292204 L22.9090916,14.7590867 L1.09091891,14.7590867 L1.09091891,1.74292204 Z" id="Shape" stroke="#FFFFFF" stroke-width="0.5" fill="#000000"></path>
                            <path d="M11.9775546,12.181359 C12.3988627,11.8023777 12.6432322,11.9786108 13.1040901,11.8564642 C13.345219,11.792555 13.7318457,11.5101514 13.9376024,11.3586392 C14.3651579,11.0438011 14.4377445,10.6665778 14.7173999,10.2362473 C14.9428603,9.88931193 15.0347641,9.79430555 14.9761275,9.40011804 C14.8590948,8.61336235 14.5727042,7.58726431 13.8378104,7.21871525 C13.6532474,7.12615705 13.4881679,7.14495443 13.3146185,6.997933 C13.1932603,6.89512503 13.1540166,6.69435308 13.0281536,6.58429988 C12.6314075,6.23738978 11.9045999,6.22140729 11.4081005,6.2726993 C10.8011741,6.33539921 10.7515567,6.65363837 10.3055646,6.92963107 C10.1149476,7.0475903 9.92946844,6.99352079 9.7339322,7.1242347 C9.01004998,7.60814165 9.11461789,8.51511545 9.08445414,9.21883501 C9.06420921,9.69114809 8.83170394,10.1651081 9.11667096,10.6202222 C9.36703467,11.020072 9.81827646,11.0630217 10.1751434,11.30874 C10.6510337,11.6364112 11.2932133,12.7963588 11.9775546,12.181359 Z M12.1682657,6.65970427 C11.9366226,6.54239629 13.3915186,6.67237389 12.9927959,7.02507534 C12.8141182,7.18312998 12.3364345,6.74486783 12.1682657,6.65970427 Z M13.7929103,7.37399553 C14.4998497,7.36637123 15.0796019,9.84699537 14.832184,9.91666935 C14.4940275,10.0118955 14.4511321,8.82719362 14.3753275,8.60049053 C14.2867374,8.33555246 13.5427715,7.5733771 13.7929103,7.37399553 Z M9.93647432,8.13573064 C11.2214346,5.57228275 15.1764652,7.57506584 13.8914316,10.1385878 C12.606492,12.7019214 8.65160675,10.6989932 9.93647432,8.13573064 Z M9.24138266,10.4096469 C9.14884306,10.2307623 9.10871425,9.75402899 9.22603679,9.57632169 C9.48746936,9.1803329 9.53744655,9.79634028 9.55626973,10.0209603 C9.58831646,10.4033789 9.99926158,10.873835 9.99623458,10.8790639 C9.83750071,11.1532792 9.29795336,10.5191502 9.24138266,10.4096469 Z M10.2695343,11.2079898 C10.2385931,11.1767249 10.2076518,11.1454599 10.17671,11.114195 C10.1756982,11.0038724 11.3785389,11.6544317 11.3580794,11.8233646 C11.2915999,12.3722809 10.352249,11.2816008 10.2695343,11.2079898 Z" id="Shape" fill-opacity="0.75" fill="#FF00FF"></path>
                            <path d="M13.6847165,10.0339038 C14.8360036,7.73712856 11.2917286,5.94983483 10.143547,8.24059577 C8.99620764,10.5296765 12.5320424,12.3334449 13.6847165,10.0339038 Z" id="Path" fill-opacity="0.75" fill="#FF00FF"></path>
                        </g>
                    </g>
                </g>
            </g>
        </g>
    </g>
</svg>