<?xml version="1.0" encoding="UTF-8"?>
<svg width="8px" height="16px" viewBox="0 0 8 16" version="1.1" xmlns="http://www.w3.org/2000/svg" xmlns:xlink="http://www.w3.org/1999/xlink">
    <title>Facebook</title>
    <g id="Symbols" stroke="none" stroke-width="1" fill="none" fill-rule="evenodd">
        <g id="UI-/-Global-/-Navigation-/-Sidebar-/-Dark" transform="translate(-33.000000, -728.000000)" fill="#FFFFFF">
            <g id="Social-Links" transform="translate(28.000000, 728.000000)">
                <path d="M10.2842566,4.98051628 L10.2842566,3.67083125 C10.2842566,3.47419171 10.2932574,3.32192908 10.3115966,3.21438298 C10.3298233,3.10661047 10.3712271,3.00064927 10.4354705,2.89604654 C10.4996015,2.79155702 10.603561,2.71933132 10.7471243,2.67936946 C10.8908,2.63929439 11.0818426,2.61937006 11.3202521,2.61937006 L12.6217721,2.61937006 L12.6217721,-1.60875993e-15 L10.5410053,-1.60875993e-15 C9.33691925,-1.60875993e-15 8.47227702,0.287431091 7.94674106,0.862293272 C7.4212051,1.43726866 7.15849338,2.28416586 7.15849338,3.40332449 L7.15849338,4.98051628 L5.59999967,4.98051628 L5.59999967,7.59999955 L7.15838087,7.59999955 L7.15838087,15.1999991 L10.2842566,15.1999991 L10.2842566,7.59999955 L12.3650235,7.59999955 L12.6399988,4.98051628 L10.2842566,4.98051628 L10.2842566,4.98051628 Z" id="Facebook"></path>
            </g>
        </g>
    </g>
</svg>