<?xml version="1.0" encoding="UTF-8"?>
<svg width="17px" height="17px" viewBox="0 0 17 17" version="1.1" xmlns="http://www.w3.org/2000/svg" xmlns:xlink="http://www.w3.org/1999/xlink">
    <title>instagram</title>
    <g id="Symbols" stroke="none" stroke-width="1" fill="none" fill-rule="evenodd">
        <g id="UI-/-Global-/-Navigation-/-Sidebar-/-Light" transform="translate(-29.000000, -731.000000)" fill="#000000">
            <g id="instagram" transform="translate(29.000000, 731.000000)">
                <g id="Shape">
                    <path d="M13.7145461,0 L3.2854539,0 C1.47430621,0 0,1.47330668 0,3.2854539 L0,13.7145461 C0,15.5266933 1.47430621,17 3.2854539,17 L13.7145461,17 C15.5256938,17 17,15.5266933 17,13.7145461 L17,3.2854539 C17,1.47330668 15.5256938,0 13.7145461,0 L13.7145461,0 Z M14.6571025,1.96007761 L15.0329257,1.95807855 L15.0329257,4.83972248 L12.1602775,4.84871825 L12.1502822,1.96707432 L14.6571025,1.96007761 L14.6571025,1.96007761 Z M6.07414158,6.75482126 C6.6178857,6.00117592 7.5014699,5.50740828 8.5,5.50740828 C9.4985301,5.50740828 10.3821143,6.00117592 10.9258584,6.75482126 C11.2806914,7.24658984 11.4925917,7.84830668 11.4925917,8.5 C11.4925917,10.1492239 10.1502234,11.4915922 8.5,11.4915922 C6.85077611,11.4915922 5.50840781,10.1492239 5.50840781,8.5 C5.50840781,7.84830668 5.72030809,7.24658984 6.07414158,6.75482126 L6.07414158,6.75482126 Z M15.3437794,13.7145461 C15.3437794,14.6131232 14.6131232,15.3437794 13.7145461,15.3437794 L3.2854539,15.3437794 C2.38687676,15.3437794 1.6562206,14.6131232 1.6562206,13.7145461 L1.6562206,6.75482126 L4.19502587,6.75482126 C3.97512935,7.29456726 3.85218721,7.88329022 3.85218721,8.5 C3.85218721,11.062794 5.93720602,13.1488123 8.5,13.1488123 C11.0637935,13.1488123 13.1488123,11.062794 13.1488123,8.5 C13.1488123,7.88329022 13.0238711,7.29456726 12.8059737,6.75482126 L15.3437794,6.75482126 L15.3437794,13.7145461 L15.3437794,13.7145461 Z"></path>
                </g>
            </g>
        </g>
    </g>
</svg>