<?xml version="1.0" encoding="UTF-8"?>
<svg width="18px" height="17px" viewBox="0 0 18 17" version="1.1" xmlns="http://www.w3.org/2000/svg" xmlns:xlink="http://www.w3.org/1999/xlink">
    <title>Linkedin</title>
    <g id="Symbols" stroke="none" stroke-width="1" fill="none" fill-rule="evenodd">
        <g id="UI-/-Global-/-Navigation-/-Sidebar-/-Light" transform="translate(-28.000000, -847.000000)" fill="#000000">
            <g id="Social-Links" transform="translate(28.000000, 728.000000)">
                <g id="Linkedin" transform="translate(0.800000, 119.199993)">
                    <rect id="Rectangle-path" x="0.201087976" y="4.96652741" width="3.44140759" height="10.3345908"></rect>
                    <path d="M14.9336302,5.91846329 C14.2108143,5.12934339 13.2546544,4.73471944 12.0659186,4.73471944 C11.6279026,4.73471944 11.2298227,4.78860743 10.8716787,4.89638342 C10.5136627,5.0041594 10.2113268,5.15532739 9.96441481,5.35001536 C9.71763084,5.54470334 9.52115086,5.72543932 9.37523088,5.8922233 C9.2364789,6.05068728 9.10092692,6.23513526 8.96844693,6.44390323 L8.96844693,4.97433541 L5.53740734,4.97433541 L5.54790334,5.47494335 C5.55494334,5.80876731 5.55839934,6.83763118 5.55839934,8.56179098 C5.55839934,10.2860788 5.55148734,12.5350385 5.53753534,15.3090542 L8.96844693,15.3090542 L8.96844693,9.54201486 C8.96844693,9.1874549 9.00659093,8.90598294 9.08313492,8.69721496 C9.2293109,8.34252701 9.44972687,8.04543904 9.74540684,7.80569507 C10.0409588,7.5656951 10.4076788,7.44575911 10.8456947,7.44575911 C11.4435826,7.44575911 11.8833906,7.65260709 12.1649905,8.06630304 C12.4464625,8.47987099 12.5872625,9.05177492 12.5872625,9.78175883 L12.5872625,15.3087982 L16.0183021,15.3087982 L16.0183021,9.38572688 C16.0180461,7.86303906 15.6567021,6.7073272 14.9336302,5.91846329 L14.9336302,5.91846329 Z" id="Shape"></path>
                    <path d="M1.93971177,5.45696756e-15 C1.36268784,5.45696756e-15 0.895231893,0.16870398 0.537087936,0.50585594 C0.178943979,0.8430079 -4.54747297e-16,1.26873585 -4.54747297e-16,1.78329579 C-4.54747297e-16,2.29068773 0.173823979,2.71487968 0.521471938,3.05548764 C0.868991896,3.3960956 1.32787184,3.56646357 1.89798377,3.56646357 L1.91884777,3.56646357 C2.5029117,3.56646357 2.97395165,3.3962236 3.3319676,3.05548764 C3.68998356,2.71487968 3.86547154,2.29081573 3.85855954,1.78329579 C3.85164754,1.26873585 3.67423956,0.8430079 3.3267196,0.50585594 C2.97919964,0.16857598 2.5167357,5.45696756e-15 1.93971177,5.45696756e-15 L1.93971177,5.45696756e-15 Z" id="Shape"></path>
                </g>
            </g>
        </g>
    </g>
</svg>