<?xml version="1.0" encoding="UTF-8"?>
<svg width="18px" height="15px" viewBox="0 0 18 15" version="1.1" xmlns="http://www.w3.org/2000/svg" xmlns:xlink="http://www.w3.org/1999/xlink">
    <title>Twitter</title>
    <g id="Symbols" stroke="none" stroke-width="1" fill="none" fill-rule="evenodd">
        <g id="UI-/-Global-/-Navigation-/-Sidebar-/-Light" transform="translate(-28.000000, -788.000000)" fill="#000000">
            <g id="Social-Links" transform="translate(28.000000, 728.000000)">
                <path d="M17.599999,62.4150476 C16.9076555,62.698438 16.2150379,62.8754103 15.5229685,62.9464861 C16.304682,62.5002082 16.8333632,61.8697853 17.1088751,61.0552173 C16.393915,61.4588496 15.6308431,61.7350672 14.8193853,61.88387 C14.1045622,61.1613745 13.226214,60.7999964 12.1837922,60.7999964 C11.1861926,60.7999964 10.3356697,61.1346396 9.63194933,61.8040564 C8.92836607,62.4734733 8.57664297,63.2826943 8.57664297,64.2318499 C8.57664297,64.4868099 8.60638729,64.7489428 8.66601299,65.018118 C7.19181895,64.947303 5.80891391,64.5949234 4.51716081,63.9609793 C3.22540771,63.3269047 2.12911725,62.482211 1.22828943,61.4267677 C0.900690751,61.9579453 0.736891413,62.5352897 0.736891413,63.1586702 C0.736891413,63.7465781 0.882049153,64.2921013 1.1725017,64.794979 C1.46281718,65.2978567 1.85374246,65.7051407 2.34514047,66.016831 C1.76437245,65.9955735 1.22088762,65.8502919 0.71468598,65.5811167 L0.71468598,65.6236318 C0.71468598,66.4524149 0.988278849,67.180127 1.53546459,67.8071592 C2.08265032,68.4341913 2.77321188,68.8289556 3.60701219,68.9918431 C3.29435421,69.0697004 2.97785825,69.1086943 2.65779846,69.1086943 C2.44931411,69.1086943 2.22218817,69.090958 1.9765577,69.0557461 C2.20738455,69.7427689 2.63175505,70.3075934 3.2496692,70.7503501 C3.86758336,71.1932372 4.56746571,71.4214623 5.3491792,71.4358079 C4.03892157,72.413133 2.54622301,72.901926 0.871083507,72.901926 C0.550886643,72.901926 0.260571164,72.8879716 0,72.8595413 C1.6751395,73.8865543 3.52148015,74.3999956 5.53915902,74.3999956 C6.81967234,74.3999956 8.02205542,74.2071127 9.14603414,73.8210863 C10.2704241,73.4350598 11.2307405,72.9179669 12.0273947,72.2696772 C12.8239118,71.6216483 13.5107725,70.8760695 14.0877025,70.0330712 C14.6646326,69.1902033 15.0944859,68.3101673 15.3775366,67.3928328 C15.6604503,66.4753679 15.8019071,65.5564684 15.8019071,64.6354823 C15.8019071,64.4371221 15.7982062,64.2884497 15.7906674,64.1892044 C16.4980886,63.7006722 17.1011991,63.1091128 17.599999,62.4150476 L17.599999,62.4150476 Z" id="Twitter"></path>
            </g>
        </g>
    </g>
</svg>