<?xml version="1.0" encoding="UTF-8"?>
<svg  viewBox="0 0 98 32" version="1.1" xmlns="http://www.w3.org/2000/svg" xmlns:xlink="http://www.w3.org/1999/xlink">
    <title>Logo / Emblem / Final / Dark Copy</title>
    <g id="Responsive" stroke="none" stroke-width="1" fill="none" fill-rule="evenodd">
        <g id="iPhone-8-Copy" transform="translate(-261.000000, -23.000000)" fill="#000000">
            <g id="Mobile-Navbar">
                <g id="Logo-/-Final-/-Light" transform="translate(261.000000, 23.000000)">
                    <g id="Group-2">
                        <g id="Group-3-Copy-3" transform="translate(51.563077, 4.911628)">
                            <g id="Logo-/-Text-/-Final-/-Light" transform="translate(-0.000000, 0.000000)">
                                <g id="Group-3" transform="translate(0.000000, 0.000000)">
                                    <path d="M1.48432308,5.46009302 C2.05649231,5.46009302 2.34672308,5.32911628 2.52086154,5.04260465 L2.53744615,5.04260465 L2.53744615,5.41097674 L3.38326154,5.41097674 L3.38326154,2.57860465 C3.38326154,1.55534884 2.67012308,1.21153488 1.63358462,1.21153488 C1.00336923,1.21153488 0.539,1.37525581 0.2156,1.81730233 L0.878984615,2.31665116 C1.02824615,2.07925581 1.23555385,1.99739535 1.67504615,1.99739535 C2.28038462,1.99739535 2.53744615,2.13655814 2.53744615,2.52948837 L2.53744615,2.96334884 L1.36823077,2.96334884 C0.464369231,2.96334884 4.49937523e-14,3.52818605 4.49937523e-14,4.19125581 C4.49937523e-14,4.91162791 0.547292308,5.46009302 1.48432308,5.46009302 Z M1.59212308,4.67423256 C1.01995385,4.67423256 0.796061538,4.42865116 0.796061538,4.15032558 C0.796061538,3.84744186 1.02824615,3.65097674 1.52578462,3.65097674 L2.53744615,3.65097674 L2.53744615,3.95386047 C2.53744615,4.60055814 2.29696923,4.67423256 1.59212308,4.67423256 Z M6.22445387,5.41097674 L7.7668231,1.26065116 L6.87125387,1.26065116 L5.88446925,4.16669767 L5.86788464,4.16669767 L4.88110002,1.26065116 L3.98553079,1.26065116 L5.52790002,5.41097674 L6.22445387,5.41097674 Z M9.52172312,5.46009302 C10.0938924,5.46009302 10.3841231,5.32911628 10.5582616,5.04260465 L10.5748462,5.04260465 L10.5748462,5.41097674 L11.4206616,5.41097674 L11.4206616,2.57860465 C11.4206616,1.55534884 10.7075231,1.21153488 9.67098466,1.21153488 C9.04076927,1.21153488 8.57640004,1.37525581 8.25300004,1.81730233 L8.91638466,2.31665116 C9.0656462,2.07925581 9.27295389,1.99739535 9.7124462,1.99739535 C10.3177847,1.99739535 10.5748462,2.13655814 10.5748462,2.52948837 L10.5748462,2.96334884 L9.40563081,2.96334884 C8.50176927,2.96334884 8.03740004,3.52818605 8.03740004,4.19125581 C8.03740004,4.91162791 8.58469235,5.46009302 9.52172312,5.46009302 Z M9.62952312,4.67423256 C9.05735389,4.67423256 8.83346158,4.42865116 8.83346158,4.15032558 C8.83346158,3.84744186 9.0656462,3.65097674 9.56318466,3.65097674 L10.5748462,3.65097674 L10.5748462,3.95386047 C10.5748462,4.60055814 10.3343693,4.67423256 9.62952312,4.67423256 Z M13.4657924,5.41097674 L13.4657924,2.9387907 C13.4657924,2.37395349 13.8223616,2.04651163 14.3033154,2.04651163 C14.775977,2.04651163 15.1325462,2.37395349 15.1325462,2.9387907 L15.1325462,5.41097674 L15.9783616,5.41097674 L15.9783616,2.65227907 C15.9783616,1.71088372 15.2320539,1.21153488 14.5769616,1.21153488 C14.129177,1.21153488 13.7477308,1.37525581 13.482377,1.70269767 L13.4657924,1.70269767 L13.4657924,1.26065116 L12.619977,1.26065116 L12.619977,5.41097674 L13.4657924,5.41097674 Z M18.686877,5.41097674 L18.686877,4.62511628 L18.3717693,4.62511628 C18.1644616,4.62511628 18.0732462,4.54325581 18.0732462,4.31404651 L18.0732462,1.89916279 L18.686877,1.89916279 L18.686877,1.26065116 L18.0732462,1.26065116 L18.0732462,-3.70143193e-15 L17.2274309,-3.70143193e-15 L17.2274309,1.26065116 L16.8045232,1.26065116 L16.8045232,1.89916279 L17.2274309,1.89916279 L17.2274309,4.38772093 C17.2274309,5.04260465 17.6586309,5.41097674 18.2473847,5.41097674 L18.686877,5.41097674 Z" id="avant" fill-rule="nonzero"></path>
                                    <path d="M1.53407692,14.2533953 C2.49598462,14.2533953 3.35838462,13.6803721 3.35838462,12.427907 L3.35838462,8.37581395 L2.51256923,8.37581395 L2.51256923,8.81786047 C2.19746154,8.4904186 1.85747692,8.32669767 1.42627692,8.32669767 C0.878984615,8.32669767 0.505830769,8.59683721 0.315107692,8.83423256 C0.078925,9.13974751 0.00271826923,9.2952328 7.19136333e-05,10.3941847 L3.85660734e-14,10.4550698 C3.85660734e-14,11.6011163 0.0746307692,11.7566512 0.315107692,12.0677209 C0.505830769,12.3051163 0.878984615,12.5752558 1.42627692,12.5752558 C1.85747692,12.5752558 2.24721538,12.3787907 2.51256923,12.0922791 L2.51256923,12.5179535 C2.51256923,13.0991628 2.11453846,13.4184186 1.55066154,13.4184186 C1.22726154,13.4184186 0.937030769,13.2465116 0.729723077,13.0418605 L0.0746307692,13.5575814 C0.447784615,13.9750698 0.995076923,14.2533953 1.53407692,14.2533953 Z M1.68333846,11.7402791 C1.34335385,11.7402791 1.12775385,11.5683721 1.01166154,11.4210233 C0.866327935,11.2376989 0.846780141,11.1242224 0.845851956,10.5062892 L0.845961886,10.3561064 C0.847865291,9.77186588 0.870054438,9.65955397 1.01166154,9.48093023 C1.12775385,9.3335814 1.34335385,9.16167442 1.68333846,9.16167442 C2.01503077,9.16167442 2.23063077,9.3335814 2.34672308,9.48093023 C2.49598462,9.6692093 2.51256923,9.78381395 2.51256923,10.4550698 C2.51256923,11.1181395 2.49598462,11.2327442 2.34672308,11.4210233 C2.23063077,11.5683721 2.01503077,11.7402791 1.68333846,11.7402791 Z M5.71033079,12.5752558 C6.28250002,12.5752558 6.57273079,12.4442791 6.74686925,12.1577674 L6.76345387,12.1577674 L6.76345387,12.5261395 L7.60926925,12.5261395 L7.60926925,9.69376744 C7.60926925,8.67051163 6.89613079,8.32669767 5.85959233,8.32669767 C5.22937694,8.32669767 4.76500771,8.4904186 4.44160771,8.93246512 L5.10499233,9.43181395 C5.25425387,9.1944186 5.46156156,9.11255814 5.90105387,9.11255814 C6.50639233,9.11255814 6.76345387,9.25172093 6.76345387,9.64465116 L6.76345387,10.0785116 L5.59423848,10.0785116 C4.69037694,10.0785116 4.22600771,10.6433488 4.22600771,11.3064186 C4.22600771,12.0267907 4.77330002,12.5752558 5.71033079,12.5752558 Z M5.81813079,11.7893953 C5.24596156,11.7893953 5.02206925,11.543814 5.02206925,11.2654884 C5.02206925,10.9626047 5.25425387,10.7661395 5.75179233,10.7661395 L6.76345387,10.7661395 L6.76345387,11.0690233 C6.76345387,11.7157209 6.52297694,11.7893953 5.81813079,11.7893953 Z M9.65440004,12.5261395 L9.65440004,10.0293953 C9.65440004,9.42362791 10.0607231,9.16167442 10.4753385,9.16167442 C10.6909385,9.16167442 10.8319077,9.21897674 11.0309231,9.36632558 L11.6445539,8.64595349 C11.3874924,8.44948837 11.1055539,8.32669767 10.7655693,8.32669767 C10.3177847,8.32669767 9.9363385,8.4904186 9.67098466,8.81786047 L9.65440004,8.81786047 L9.65440004,8.37581395 L8.80858466,8.37581395 L8.80858466,12.5261395 L9.65440004,12.5261395 Z M13.4160385,12.5752558 C13.8472385,12.5752558 14.236977,12.3787907 14.5023308,12.0922791 L14.5023308,12.5261395 L15.3481462,12.5261395 L15.3481462,6.69767442 L14.5023308,6.69767442 L14.5023308,8.81786047 C14.1872231,8.52316279 13.8472385,8.32669767 13.4160385,8.32669767 C12.9019154,8.32669767 12.5287616,8.55590698 12.2882847,8.86697674 C12.0561001,9.16167442 11.9897616,9.43181395 11.9897616,10.4468837 C11.9897616,11.4701395 12.0561001,11.7402791 12.2882847,12.0349767 C12.5287616,12.3460465 12.9019154,12.5752558 13.4160385,12.5752558 Z M13.6731001,11.7402791 C12.8770385,11.7402791 12.835577,11.0935814 12.835577,10.4468837 C12.835577,9.80837209 12.8770385,9.16167442 13.6731001,9.16167442 C14.4472871,9.16167442 14.5006793,9.82579543 14.5022902,10.415898 L14.5023308,10.4468837 C14.5023308,11.0526512 14.4608693,11.7402791 13.6731001,11.7402791 Z M18.0566616,12.5752558 C18.6205385,12.5752558 19.1595385,12.3787907 19.5741539,11.904 L18.9605232,11.3882791 C18.7117539,11.6420465 18.363477,11.7893953 18.040077,11.7893953 C17.4596155,11.7893953 17.0367078,11.4455814 17.0367078,10.7661395 L19.657077,10.7661395 L19.657077,10.0785116 C19.657077,9.00613953 18.8527232,8.32669767 17.9239847,8.32669767 C17.1113385,8.32669767 16.1908924,8.85060465 16.1908924,10.4632558 C16.1908924,12.1659535 17.1942616,12.5752558 18.0566616,12.5752558 Z M18.8112616,10.0785116 L17.0367078,10.0785116 C17.0532924,9.44818605 17.4264462,9.11255814 17.9239847,9.11255814 C18.4215232,9.11255814 18.7863847,9.44818605 18.8112616,10.0785116 Z" id="garde" fill-rule="nonzero"></path>
                                    <path d="M0.845815385,19.5505116 L0.845815385,17.0783256 C0.845815385,16.5134884 1.20238462,16.1860465 1.68333846,16.1860465 C2.156,16.1860465 2.51256923,16.5134884 2.51256923,17.0783256 L2.51256923,19.5505116 L3.35838462,19.5505116 L3.35838462,17.0783256 C3.35838462,16.5134884 3.71495385,16.1860465 4.19590769,16.1860465 C4.66856923,16.1860465 5.02513846,16.5134884 5.02513846,17.0783256 L5.02513846,19.5505116 L5.87095385,19.5505116 L5.87095385,16.791814 C5.87095385,15.8504186 5.12464615,15.3510698 4.46955385,15.3510698 C3.89738462,15.3510698 3.49106154,15.5147907 3.14278462,15.8913488 C2.84426154,15.5884651 2.54573846,15.3510698 1.95698462,15.3510698 C1.5092,15.3510698 1.12775385,15.5147907 0.8624,15.8422326 L0.845815385,15.8422326 L0.845815385,15.400186 L4.28511927e-15,15.400186 L4.28511927e-15,19.5505116 L0.845815385,19.5505116 Z M8.27265387,19.5996279 C8.8448231,19.5996279 9.13505387,19.4686512 9.30919233,19.1821395 L9.32577694,19.1821395 L9.32577694,19.5505116 L10.1715923,19.5505116 L10.1715923,16.7181395 C10.1715923,15.6948837 9.45845387,15.3510698 8.42191541,15.3510698 C7.79170002,15.3510698 7.32733079,15.5147907 7.00393079,15.9568372 L7.66731541,16.456186 C7.81657694,16.2187907 8.02388464,16.1369302 8.46337694,16.1369302 C9.06871541,16.1369302 9.32577694,16.276093 9.32577694,16.6690233 L9.32577694,17.1028837 L8.15656156,17.1028837 C7.25270002,17.1028837 6.78833079,17.6677209 6.78833079,18.3307907 C6.78833079,19.0511628 7.3356231,19.5996279 8.27265387,19.5996279 Z M8.38045387,18.8137674 C7.80828464,18.8137674 7.58439233,18.568186 7.58439233,18.2898605 C7.58439233,17.9869767 7.81657694,17.7905116 8.31411541,17.7905116 L9.32577694,17.7905116 L9.32577694,18.0933953 C9.32577694,18.740093 9.08530002,18.8137674 8.38045387,18.8137674 Z M12.2167231,19.5505116 L12.2167231,17.0783256 C12.2167231,16.5134884 12.5732924,16.1860465 13.0542462,16.1860465 C13.5269077,16.1860465 13.883477,16.5134884 13.883477,17.0783256 L13.883477,19.5505116 L14.7292924,19.5505116 L14.7292924,16.791814 C14.7292924,15.8504186 13.9829847,15.3510698 13.3278924,15.3510698 C12.8801077,15.3510698 12.4986616,15.5147907 12.2333077,15.8422326 L12.2167231,15.8422326 L12.2167231,15.400186 L11.3709077,15.400186 L11.3709077,19.5505116 L12.2167231,19.5505116 Z M17.0812385,19.5996279 C17.6534078,19.5996279 17.9436385,19.4686512 18.117777,19.1821395 L18.1343616,19.1821395 L18.1343616,19.5505116 L18.980177,19.5505116 L18.980177,16.7181395 C18.980177,15.6948837 18.2670385,15.3510698 17.2305001,15.3510698 C16.6002847,15.3510698 16.1359154,15.5147907 15.8125154,15.9568372 L16.4759001,16.456186 C16.6251616,16.2187907 16.8324693,16.1369302 17.2719616,16.1369302 C17.8773001,16.1369302 18.1343616,16.276093 18.1343616,16.6690233 L18.1343616,17.1028837 L16.9651462,17.1028837 C16.0612847,17.1028837 15.5969154,17.6677209 15.5969154,18.3307907 C15.5969154,19.0511628 16.1442078,19.5996279 17.0812385,19.5996279 Z M17.1890385,18.8137674 C16.6168693,18.8137674 16.392977,18.568186 16.392977,18.2898605 C16.392977,17.9869767 16.6251616,17.7905116 17.1227001,17.7905116 L18.1343616,17.7905116 L18.1343616,18.0933953 C18.1343616,18.740093 17.8938847,18.8137674 17.1890385,18.8137674 Z M21.5643078,21.2777674 C22.5262155,21.2777674 23.3886155,20.7047442 23.3886155,19.4522791 L23.3886155,15.400186 L22.5428001,15.400186 L22.5428001,15.8422326 C22.2276924,15.5147907 21.8877078,15.3510698 21.4565078,15.3510698 C20.9092155,15.3510698 20.5360616,15.6212093 20.3453385,15.8586047 C20.1048616,16.1696744 20.0302309,16.3252093 20.0302309,17.4794419 C20.0302309,18.6254884 20.1048616,18.7810233 20.3453385,19.092093 C20.5360616,19.3294884 20.9092155,19.5996279 21.4565078,19.5996279 C21.8877078,19.5996279 22.2774462,19.4031628 22.5428001,19.1166512 L22.5428001,19.5423256 C22.5428001,20.1235349 22.1447693,20.4427907 21.5808924,20.4427907 C21.2574924,20.4427907 20.9672616,20.2708837 20.7599539,20.0662326 L20.1048616,20.5819535 C20.4780155,20.9994419 21.0253078,21.2777674 21.5643078,21.2777674 Z M21.7135693,18.7646512 C21.3735847,18.7646512 21.1579847,18.5927442 21.0418924,18.4453953 C20.8965588,18.262071 20.877011,18.1485945 20.8760828,17.5306613 L20.8760462,17.4794419 C20.8760462,16.808186 20.8926309,16.6935814 21.0418924,16.5053023 C21.1579847,16.3579535 21.3735847,16.1860465 21.7135693,16.1860465 C22.0452616,16.1860465 22.2608616,16.3579535 22.3769539,16.5053023 C22.5223883,16.6887537 22.5418624,16.8022604 22.5427654,17.4288941 L22.5428001,17.4794419 C22.5428001,18.1425116 22.5262155,18.2571163 22.3769539,18.4453953 C22.2608616,18.5927442 22.0452616,18.7646512 21.7135693,18.7646512 Z M26.2463924,19.5996279 C26.8102693,19.5996279 27.3492693,19.4031628 27.7638847,18.9283721 L27.150254,18.4126512 C26.9014847,18.6664186 26.5532078,18.8137674 26.2298078,18.8137674 C25.6493463,18.8137674 25.2264386,18.4699535 25.2264386,17.7905116 L27.8468078,17.7905116 L27.8468078,17.1028837 C27.8468078,16.0305116 27.042454,15.3510698 26.1137155,15.3510698 C25.3010693,15.3510698 24.3806232,15.8749767 24.3806232,17.4876279 C24.3806232,19.1903256 25.3839924,19.5996279 26.2463924,19.5996279 Z M27.0009924,17.1028837 L25.2264386,17.1028837 C25.2430232,16.4725581 25.616177,16.1369302 26.1137155,16.1369302 C26.611254,16.1369302 26.9761155,16.4725581 27.0009924,17.1028837 Z M29.7343847,19.5505116 L29.7343847,17.0783256 C29.7343847,16.5134884 30.090954,16.1860465 30.5719078,16.1860465 C31.0445694,16.1860465 31.4011386,16.5134884 31.4011386,17.0783256 L31.4011386,19.5505116 L32.246954,19.5505116 L32.246954,17.0783256 C32.246954,16.5134884 32.6035232,16.1860465 33.0844771,16.1860465 C33.5571386,16.1860465 33.9137078,16.5134884 33.9137078,17.0783256 L33.9137078,19.5505116 L34.7595232,19.5505116 L34.7595232,16.791814 C34.7595232,15.8504186 34.0132155,15.3510698 33.3581232,15.3510698 C32.785954,15.3510698 32.3796309,15.5147907 32.031354,15.8913488 C31.7328309,15.5884651 31.4343078,15.3510698 30.845554,15.3510698 C30.3977694,15.3510698 30.0163232,15.5147907 29.7509694,15.8422326 L29.7343847,15.8422326 L29.7343847,15.400186 L28.8885694,15.400186 L28.8885694,19.5505116 L29.7343847,19.5505116 Z M37.667054,19.5996279 C38.2309309,19.5996279 38.7699309,19.4031628 39.1845463,18.9283721 L38.5709155,18.4126512 C38.3221463,18.6664186 37.9738694,18.8137674 37.6504694,18.8137674 C37.0700078,18.8137674 36.6471002,18.4699535 36.6471002,17.7905116 L39.2674694,17.7905116 L39.2674694,17.1028837 C39.2674694,16.0305116 38.4631155,15.3510698 37.5343771,15.3510698 C36.7217309,15.3510698 35.8012848,15.8749767 35.8012848,17.4876279 C35.8012848,19.1903256 36.804654,19.5996279 37.667054,19.5996279 Z M38.421654,17.1028837 L36.6471002,17.1028837 C36.6636848,16.4725581 37.0368386,16.1369302 37.5343771,16.1369302 C38.0319155,16.1369302 38.3967771,16.4725581 38.421654,17.1028837 Z M41.1052925,19.5505116 L41.1052925,17.0783256 C41.1052925,16.5134884 41.4618617,16.1860465 41.9428156,16.1860465 C42.4154771,16.1860465 42.7720463,16.5134884 42.7720463,17.0783256 L42.7720463,19.5505116 L43.6178617,19.5505116 L43.6178617,16.791814 C43.6178617,15.8504186 42.871554,15.3510698 42.2164617,15.3510698 C41.7686771,15.3510698 41.3872309,15.5147907 41.1218771,15.8422326 L41.1052925,15.8422326 L41.1052925,15.400186 L40.2594771,15.400186 L40.2594771,19.5505116 L41.1052925,19.5505116 Z M46.3263771,19.5505116 L46.3263771,18.7646512 L46.0112694,18.7646512 C45.8039617,18.7646512 45.7127463,18.6827907 45.7127463,18.4535814 L45.7127463,16.0386977 L46.3263771,16.0386977 L46.3263771,15.400186 L45.7127463,15.400186 L45.7127463,14.1395349 L44.866931,14.1395349 L44.866931,15.400186 L44.4440233,15.400186 L44.4440233,16.0386977 L44.866931,16.0386977 L44.866931,18.5272558 C44.866931,19.1821395 45.298131,19.5505116 45.8868848,19.5505116 L46.3263771,19.5505116 Z" id="management" fill-rule="nonzero"></path>
                                </g>
                            </g>
                        </g>
                        <g id="Logo-/-Emblem-/-Final-/-Light" fill-rule="nonzero">
                            <path d="M8.94664615,0 C10.2412513,0 11.4318256,0.180114594 12.5183692,0.540343782 C13.6049128,0.900572969 14.5354103,1.40714526 15.3098615,2.06006067 C16.0843128,2.71297607 16.691159,3.48972026 17.1304,4.39029323 C17.569641,5.29086619 17.7892615,6.28149646 17.7892615,7.36218402 L17.7892615,8.65473488 L17.8187458,8.6298906 C18.9603965,7.67611335 20.3693666,7.18051041 22.0339886,7.1447797 L22.1322023,7.14320833 L22.2291356,7.14269767 C23.4299054,7.14269767 24.4703542,7.38199797 25.3461526,7.8634676 C26.0636985,8.25793805 26.69259,8.83001748 27.2327367,9.57667878 L27.2923878,9.66035944 L27.3364215,9.72413023 L27.3893622,9.65692761 C27.9370997,8.96954908 28.5796232,8.41673868 29.3158701,8.00023845 L29.408389,7.948886 L29.4982698,7.90084837 C30.4624235,7.39513193 31.5465999,7.14269767 32.7464552,7.14269767 C33.6510852,7.14269767 34.4905713,7.28737035 35.2632117,7.57738817 C36.0380751,7.8682404 36.7043856,8.27815587 37.2596784,8.80674131 C37.8138788,9.33428677 38.2507979,9.9606803 38.5695497,10.6838339 C38.8767652,11.380815 39.036201,12.1413937 39.0484643,12.963354 L39.0492308,13.0664186 L39.0492308,21.9371163 L36.2032672,21.9371163 L36.2032672,13.3343256 C36.2032672,12.1723067 35.9043731,11.284774 35.3139114,10.6568445 C34.7277483,10.0334863 33.9093486,9.72055814 32.837383,9.72055814 C32.2471646,9.72055814 31.6820751,9.82129535 31.1403538,10.0229094 C30.5977061,10.2248682 30.1238343,10.501316 29.7170252,10.8525366 C29.3113704,11.2027606 28.9918462,11.6056399 28.7568776,12.0625608 C28.537963,12.4882629 28.4231139,12.9381025 28.4116309,13.4152855 L28.4106741,13.4950698 L28.4106741,21.9371163 L25.5647105,21.9371163 L25.5647105,13.2271628 C25.5647105,12.6911349 25.4801561,12.2094863 25.3122131,11.7806406 C25.1451904,11.3541448 24.9103202,10.9918548 24.6069427,10.6911921 C24.3031106,10.3900789 23.9337019,10.1533487 23.4962034,9.98056357 C23.0579479,9.80747945 22.5756274,9.72055814 22.0472799,9.72055814 C21.4594369,9.72055814 20.907022,9.82489265 20.3878574,10.0334814 C19.8671864,10.2426753 19.4146356,10.5301858 19.0282686,10.8966885 C18.6411552,11.2638994 18.3347617,11.6888855 18.1080122,12.173249 C17.9346644,12.5435403 17.8284498,12.9333381 17.7892813,13.3440399 L17.7892615,24.637816 C17.7892615,25.7185035 17.569641,26.7091338 17.1304,27.6097068 C16.691159,28.5102797 16.0843128,29.2870239 15.3098615,29.9399393 C14.5354103,30.5928547 13.6049128,31.099427 12.5183692,31.4596562 C11.4318256,31.8198854 10.2412513,32 8.94664615,32 C6.37217778,32 4.33657466,31.3112064 2.83983679,29.9336191 L2.77415385,29.8723964 L4.30747692,27.9459533 C4.68004444,28.3671996 5.17456752,28.7054039 5.79104615,28.9605662 C6.7157641,29.3433097 7.75607179,29.5346815 8.91196923,29.5346815 C9.83668718,29.5346815 10.6862718,29.4164813 11.4607231,29.1800809 C12.2351744,28.9436805 12.8998154,28.6059656 13.4546462,28.1669363 C14.0094769,27.727907 14.437159,27.2157061 14.7376923,26.6303337 C15.0257034,26.0693518 15.1757092,25.4463382 15.1877097,24.761293 L15.1884923,24.6715875 L15.1884923,22.071183 C13.3621744,23.9623862 11.27,24.9079879 8.91196923,24.9079879 C7.68671795,24.9079879 6.5366,24.6715875 5.46161538,24.1987867 C5.39733696,24.1705157 5.33353382,24.1416409 5.27020594,24.1121625 L5.17557059,24.0674919 C4.19107776,23.615781 3.32697745,23.0174168 2.58343077,22.2722952 C1.78586154,21.4730367 1.15589744,20.5386923 0.693538462,19.4692619 C0.231179487,18.3998315 0,17.2572295 0,16.041456 L0,16 L0,15.958544 C0,14.7832963 0.216024387,13.6764233 0.648073162,12.6379251 L0.693538462,12.5307381 C1.15589744,11.4613077 1.78586154,10.5269633 2.58343077,9.72770475 C3.32731746,8.98224249 4.19186804,8.38367183 5.17708251,7.93199277 C5.27076437,7.88696486 5.36566031,7.8434164 5.46161538,7.80121335 C6.5366,7.32841254 7.68671795,7.09201213 8.91196923,7.09201213 C11.27,7.09201213 13.3621744,8.03761375 15.1884923,9.92881699 L15.1884923,7.32841254 C15.1884923,6.60795416 15.0382256,5.95503876 14.7376923,5.36966633 C14.437159,4.7842939 14.0094769,4.27209302 13.4546462,3.8330637 C12.8998154,3.39403438 12.2351744,3.05631951 11.4607231,2.81991911 C10.6862718,2.58351871 9.83668718,2.4653185 8.91196923,2.4653185 C7.75607179,2.4653185 6.7157641,2.65669026 5.79104615,3.03943377 C5.17456752,3.29459611 4.68004444,3.63280042 4.30747692,4.05404669 L2.77415385,2.12760364 C4.27682051,0.709201213 6.33431795,0 8.94664615,0 Z M8.94322581,10.0896744 C8.10091176,10.0896744 7.3233911,10.244909 6.61066383,10.5553782 C5.89793655,10.8658474 5.27160047,11.2940808 4.73165556,11.8400783 C4.19171066,12.3860759 3.77055363,13.0337789 3.46818449,13.7831873 C3.18852479,14.4763113 3.03819301,15.2152259 3.01718916,15.9999309 C3.03817404,16.7846809 3.18850714,17.5236449 3.46818449,18.2168127 C3.77055363,18.9662211 4.19171066,19.6139241 4.73165556,20.1599217 C5.27160047,20.7059192 5.89793655,21.1341526 6.61066383,21.4446218 C7.3233911,21.755091 8.10091176,21.9103256 8.94322581,21.9103256 C9.76394206,21.9103256 10.5306638,21.755091 11.2433911,21.4446218 C11.9561184,21.1341526 12.5716556,20.7059192 13.0900027,20.1599217 C13.6083498,19.6139241 14.0187079,18.9662211 14.3210771,18.2168127 C14.6007544,17.5236449 14.7510875,16.7846809 14.7720764,15.9999205 C14.7510685,15.2152259 14.6007367,14.4763113 14.3210771,13.7831873 C14.0187079,13.0337789 13.6083498,12.3860759 13.0900027,11.8400783 C12.5716556,11.2940808 11.9561184,10.8658474 11.2433911,10.5553782 C10.5306638,10.244909 9.76394206,10.0896744 8.94322581,10.0896744 Z" id="Shape"></path>
                        </g>
                    </g>
                </g>
            </g>
        </g>
    </g>
</svg>