<?xml version="1.0" encoding="UTF-8"?>
<svg width="259px" height="215px" viewBox="0 0 259 215" version="1.1" xmlns="http://www.w3.org/2000/svg" xmlns:xlink="http://www.w3.org/1999/xlink">
    <title>Shape</title>
    <g id="Symbols" stroke="none" stroke-width="1" fill="none" fill-rule="evenodd">
        <g id="Logo-/-Emblem-/-Final-/-Dark" fill="#FFFFFF" fill-rule="nonzero">
            <path d="M59.34,0 C67.9266667,0 75.8233333,1.21014493 83.03,3.63043478 C90.2366667,6.05072464 96.4083333,9.45425725 101.545,13.8410326 C106.681667,18.227808 110.706667,23.446558 113.62,29.4972826 C116.533333,35.5480072 117.99,42.2038043 117.99,49.4646739 L117.99,58.149 L118.185559,57.9820775 C125.757732,51.5738866 135.102942,48.2440543 146.143802,48.0039886 L146.79522,47.9934309 L147.438144,47.99 C155.402434,47.99 162.30337,49.5977989 168.112236,52.8326729 C172.87147,55.4830213 177.042689,59.3266799 180.625294,64.3433105 L181.020939,64.90554 L181.313,65.334 L181.664137,64.8824824 C185.29709,60.2641579 189.558725,56.549963 194.441996,53.7516021 L195.055642,53.4065778 L195.651789,53.083825 C202.046687,49.6860426 209.237653,47.99 217.195876,47.99 C223.195973,47.99 228.763993,48.9620195 233.888649,50.9105768 C239.028049,52.8647402 243.447455,55.6188598 247.13052,59.1702932 C250.806339,62.7147393 253.704272,66.9233208 255.818442,71.7820091 C257.856096,76.464851 258.913578,81.5749892 258.994916,87.0975349 L259,87.79 L259,147.39 L240.123711,147.39 L240.123711,89.59 C240.123711,81.7826853 238.14125,75.8195752 234.224923,71.6006738 C230.337106,67.4124858 224.908945,65.31 217.798969,65.31 C213.884255,65.31 210.136213,65.9868281 206.543163,67.3414225 C202.943969,68.6983331 199.800942,70.555717 197.102718,72.9154803 C194.412151,75.2685475 192.292858,77.9753928 190.734392,81.0453302 C189.282408,83.9055165 188.520653,86.9278759 188.444491,90.1339496 L188.438144,90.67 L188.438144,147.39 L169.561856,147.39 L169.561856,88.87 C169.561856,85.2685628 169.001035,82.0324858 167.887128,79.1511789 C166.779324,76.28566 165.221511,73.8515244 163.209314,71.8314472 C161.194101,69.8083425 158.743941,68.2178118 155.842165,67.0569115 C152.935369,65.8940025 149.736304,65.31 146.231959,65.31 C142.333,65.31 138.669023,66.0109975 135.225585,67.4124528 C131.772155,68.8179747 128.770542,70.7496857 126.207904,73.2121257 C123.640315,75.6793239 121.608113,78.5346995 120.104163,81.7890167 C118.954407,84.2769112 118.249922,86.8958655 117.990131,89.6552683 L117.99,165.535326 C117.99,172.796196 116.533333,179.451993 113.62,185.502717 C110.706667,191.553442 106.681667,196.772192 101.545,201.158967 C96.4083333,205.545743 90.2366667,208.949275 83.03,211.369565 C75.8233333,213.789855 67.9266667,215 59.34,215 C42.2644444,215 28.7629952,210.372168 18.8356522,201.116504 L18.4,200.705163 L28.57,187.761874 C31.0411111,190.592122 34.3211111,192.864432 38.41,194.578804 C44.5433333,197.150362 51.4433333,198.436141 59.11,198.436141 C65.2433333,198.436141 70.8783333,197.641984 76.015,196.053668 C81.1516667,194.465353 85.56,192.196332 89.24,189.246603 C92.92,186.296875 95.7566667,182.855525 97.75,178.922554 C99.6602778,175.153457 100.655214,170.967585 100.734809,166.364937 L100.74,165.762228 L100.74,148.290761 C88.6266667,160.997283 74.75,167.350543 59.11,167.350543 C50.9833333,167.350543 43.355,165.762228 36.225,162.585598 C35.7986635,162.395652 35.3754794,162.20165 34.9554476,162.003591 L34.3277641,161.703462 C27.7979647,158.668528 22.0666872,154.648269 17.135,149.641984 C11.845,144.271966 7.66666667,137.994339 4.6,130.809103 C1.53333333,123.623868 0,115.947011 0,107.778533 L0,107.5 L0,107.221467 C0,99.3252717 1.43281481,91.888469 4.29844444,84.911059 L4.6,84.1908967 C7.66666667,77.0056612 11.845,70.7280344 17.135,65.3580163 C22.0689423,60.3494417 27.8032064,56.3277951 34.3377922,53.2930764 C34.9591514,52.9905451 35.5885633,52.697954 36.225,52.4144022 C43.355,49.2377717 50.9833333,47.6494565 59.11,47.6494565 C74.75,47.6494565 88.6266667,54.0027174 100.74,66.7092391 L100.74,49.2377717 C100.74,44.397192 99.7433333,40.0104167 97.75,36.0774457 C95.7566667,32.1444746 92.92,28.703125 89.24,25.7533967 C85.56,22.8036685 81.1516667,20.5346467 76.015,18.9463315 C70.8783333,17.3580163 65.2433333,16.5638587 59.11,16.5638587 C51.4433333,16.5638587 44.5433333,17.8496377 38.41,20.4211957 C34.3211111,22.1355676 31.0411111,24.4078778 28.57,27.2381262 L18.4,14.294837 C28.3666667,4.76494565 42.0133333,0 59.34,0 Z M59.317314,67.79 C53.7305372,67.79 48.5735124,68.8329825 43.8462397,70.9189474 C39.1189669,73.0049123 34.964697,75.8821053 31.3834298,79.5505263 C27.8021625,83.2189474 25.0087741,87.5707018 23.0032645,92.6057895 C21.1483787,97.2627167 20.1512802,102.227299 20.0119689,107.499536 C20.1511544,112.772075 21.1482617,117.736989 23.0032645,122.394211 C25.0087741,127.429298 27.8021625,131.781053 31.3834298,135.449474 C34.964697,139.117895 39.1189669,141.995088 43.8462397,144.081053 C48.5735124,146.167018 53.7305372,147.21 59.317314,147.21 C64.7608402,147.21 69.8462397,146.167018 74.5735124,144.081053 C79.3007851,141.995088 83.3834298,139.117895 86.8214463,135.449474 C90.2594628,131.781053 92.9812259,127.429298 94.9867355,122.394211 C96.8417383,117.736989 97.8388456,112.772075 97.9780574,107.499466 C97.8387198,102.227299 96.8416213,97.2627167 94.9867355,92.6057895 C92.9812259,87.5707018 90.2594628,83.2189474 86.8214463,79.5505263 C83.3834298,75.8821053 79.3007851,73.0049123 74.5735124,70.9189474 C69.8462397,68.8329825 64.7608402,67.79 59.317314,67.79 Z" id="Shape"></path>
        </g>
    </g>
</svg>